# xmcd CD database file
#
# Track frame offsets:
#	150
#	13994
#	27190
#	38715
#	57217
#	70601
#	82221
#	99296
#	117592
#	132637
#	144945
#	160408
#	179469
#	193592
#	208124
#	219552
#	235412
#	247912
#
# Disc length: 3498 seconds
#
# Revision: 1
# Processed by: cddbd v1.5.2PL0 Copyright (c) Steve Scherf et al.
# Submitted via: CDex 1.79
#
DISCID=070da812
DTITLE=Michael Ballew - Rodeo Cool
DYEAR=2001
DGENRE=Country
TTITLE0=I Love To Ride
TTITLE1=Rodeo Cool
TTITLE2=Damned Ol' Beer
TTITLE3=Top Of The World
TTITLE4=Boot Scootin'
TTITLE5=Glenda Pearl
TTITLE6=Nothing On Me (But You)
TTITLE7=Texas Gal
TTITLE8=Living In Limbo
TTITLE9=All Alone In San Antone
TTITLE10=Darkside Of The Dance floor
TTITLE11=Tiny Fingers, Tiny Toes
TTITLE12=Cheatin'
TTITLE13=I Can't Do That Any More
TTITLE14=The Music Is Sweet
TTITLE15=Your Memory Is Better Than Mine
TTITLE16=Tears All Over Town
TTITLE17=Higher Standard Of Leaving
EXTD=YEAR: 2001
EXTT0=
EXTT1=
EXTT2=
EXTT3=
EXTT4=
EXTT5=
EXTT6=
EXTT7=
EXTT8=
EXTT9=
EXTT10=
EXTT11=
EXTT12=
EXTT13=
EXTT14=
EXTT15=
EXTT16=
EXTT17=
PLAYORDER=
